<svg width="18" height="17" viewBox="0 0 18 17" fill="none" xmlns="http://www.w3.org/2000/svg">
<path d="M1.46024 0.784426C1.63543 0.575668 1.85028 0.403809 2.09206 0.279028C2.33383 0.154248 2.59762 0.0790821 2.86779 0.0579875C3.13796 0.0368918 3.40903 0.070297 3.66492 0.15622C3.92082 0.242142 4.15634 0.378837 4.35754 0.558206L7.93824 3.74838L15.3119 0.397256C15.904 0.127602 16.5965 0.219939 17.091 0.634849C17.1925 0.720043 17.2745 0.826025 17.3317 0.945798C17.3889 1.06557 17.42 1.19642 17.4228 1.32969C17.4257 1.46297 17.4003 1.59564 17.3484 1.71896C17.2964 1.84228 17.2191 1.95344 17.1214 2.04511L11.7237 7.12107L14.5694 9.65575L15.8309 8.92358C16.0645 8.78809 16.3332 8.7273 16.6006 8.74945C16.8681 8.77159 17.1215 8.8756 17.3264 9.04741C17.4181 9.12441 17.4937 9.21894 17.5486 9.32561C17.6036 9.43227 17.6369 9.54897 17.6467 9.66903C17.6564 9.7891 17.6425 9.91017 17.6056 10.0253C17.5687 10.1405 17.5095 10.2475 17.4316 10.3402L16.4611 11.4968L16.9777 12.156C17.1587 12.3868 17.2542 12.6739 17.2481 12.969C17.2419 13.264 17.1346 13.5491 16.944 13.7762C16.7535 14.0033 16.4914 14.1585 16.2019 14.2158C15.9123 14.2731 15.613 14.2289 15.3543 14.0907L14.616 13.6956L13.6442 14.8538C13.3417 15.2143 12.8274 15.2874 12.4457 15.0419L12.3535 14.9739C12.149 14.802 12.0028 14.5708 11.9346 14.3115C11.8663 14.0523 11.8794 13.7774 11.972 13.524L12.4717 12.154L9.49227 9.80086L5.49232 15.9041C5.48201 15.9199 5.47125 15.9353 5.46003 15.9505L5.42542 15.9949C5.08942 16.3953 4.49491 16.4506 4.09887 16.1183C3.64547 15.7378 3.43037 15.1474 3.52202 14.566L3.55595 14.4075L5.54425 6.68171L1.7398 3.67634C1.32067 3.34514 1.05183 2.85926 0.992395 2.32558C0.932963 1.7919 1.08781 1.25412 1.42288 0.830527L1.46024 0.784426Z" fill="#241F1F"/>
</svg>
