<svg width="189" height="38" viewBox="0 0 189 38" fill="none" xmlns="http://www.w3.org/2000/svg">
<path d="M139.1 -8.01086e-05C139.401 -6.10352e-05 139.699 0.0597019 139.976 0.175671C140.253 0.291639 140.504 0.461452 140.714 0.675053C140.923 0.888653 141.087 1.1417 141.196 1.41919C141.305 1.69669 141.357 1.99299 141.348 2.29055L141.191 7.58469L149.261 11.4441C149.909 11.7536 150.323 12.4051 150.323 13.118C150.323 13.2643 150.291 13.4089 150.231 13.5423C150.17 13.6758 150.081 13.7949 149.971 13.892C149.86 13.989 149.73 14.0617 149.588 14.1053C149.447 14.1489 149.298 14.1624 149.151 14.1448L141.025 13.1816L140.901 17.3886L142.416 17.9361C142.696 18.0375 142.938 18.2217 143.109 18.4637C143.281 18.7057 143.372 18.9939 143.373 19.2892C143.373 19.4215 143.346 19.5526 143.295 19.6748C143.244 19.797 143.169 19.908 143.074 20.0015C142.979 20.095 142.867 20.1692 142.743 20.2197C142.62 20.2702 142.487 20.2962 142.354 20.296H140.686L140.495 21.2011C140.428 21.5181 140.253 21.8027 139.999 22.0069C139.745 22.2112 139.428 22.3228 139.1 22.3228C138.773 22.3228 138.456 22.2112 138.202 22.0069C137.948 21.8027 137.772 21.5181 137.706 21.2011L137.516 20.296H135.846C135.326 20.296 134.899 19.9127 134.836 19.4155L134.828 19.2892C134.829 18.9942 134.92 18.7064 135.091 18.4646C135.262 18.2228 135.504 18.0388 135.784 17.9372L137.298 17.3875L137.174 13.1962L129.17 14.1448C129.15 14.1473 129.129 14.1492 129.108 14.1504L129.046 14.1527C128.469 14.1527 128 13.6889 128 13.118C128 12.4643 128.347 11.8631 128.904 11.5279L129.062 11.4441L137.01 7.64168L136.852 2.28943C136.834 1.69971 137.055 1.12733 137.464 0.698185C137.873 0.269037 138.438 0.0182705 139.034 0.0010376L139.1 -8.01086e-05Z" fill="white"/>
<path d="M25.5645 0C26.1549 0 26.6666 0.216481 27.0995 0.649444C27.5718 1.08241 27.808 1.61377 27.808 2.24353V24.349C27.808 28.5605 26.2926 31.8668 23.2619 34.2678C20.6641 36.3932 17.535 37.4559 13.8745 37.4559C10.1746 37.4559 7.04548 36.3932 4.48707 34.2678C1.49569 31.8274 0 28.5212 0 24.349V2.24353C0 1.65313 0.216481 1.14145 0.649444 0.708484C1.08241 0.236162 1.59409 0 2.18449 0C2.7749 0 3.28658 0.216481 3.71954 0.649444C4.19187 1.08241 4.42803 1.61377 4.42803 2.24353V24.4671C4.42803 27.3404 5.41203 29.5839 7.38005 31.1977C9.19062 32.6934 11.3554 33.4412 13.8745 33.4412C16.4329 33.4412 18.6174 32.6934 20.428 31.1977C22.396 29.5445 23.38 27.301 23.38 24.4671V2.24353C23.38 1.65313 23.5965 1.14145 24.0294 0.708484C24.4624 0.236162 24.9741 0 25.5645 0Z" fill="white"/>
<path d="M71.0728 0.236161C71.6632 0.236161 72.1552 0.452643 72.5488 0.885605C72.9424 1.27921 73.1392 1.75153 73.1392 2.30257C73.1392 2.85362 72.9424 3.34562 72.5488 3.77858C72.1552 4.17219 71.6632 4.36899 71.0728 4.36899H61.213V35.0353C61.213 35.6257 60.9966 36.1374 60.5636 36.5703C60.17 37.0033 59.6583 37.2198 59.0286 37.2198C58.4381 37.2198 57.9265 37.0033 57.4935 36.5703C57.0605 36.1374 56.8441 35.6257 56.8441 35.0353V4.36899H46.9843C46.4333 4.36899 45.9413 4.17219 45.5083 3.77858C45.1147 3.38498 44.9179 2.89298 44.9179 2.30257C44.9179 1.75153 45.1147 1.27921 45.5083 0.885605C45.9019 0.452643 46.3939 0.236161 46.9843 0.236161H71.0728Z" fill="white"/>
<path d="M116.876 35.0353C116.876 35.6257 116.66 36.1374 116.227 36.5703C115.833 37.0033 115.302 37.2198 114.633 37.2198C114.003 37.2198 113.472 37.023 113.039 36.6294C112.645 36.2358 112.448 35.7044 112.448 35.0353V33.5593C112.448 30.9615 112.153 29.0525 111.563 27.8324C111.012 26.6122 110.224 24.6479 109.201 23.9394C108.217 23.1915 106.8 22.8176 104.95 22.8176H94.9723V35.0353C94.9723 35.6257 94.7558 36.1374 94.3229 36.5703C93.8899 37.0033 93.3586 37.2198 92.7288 37.2198C92.1384 37.2198 91.6267 37.0033 91.1937 36.5703C90.7608 36.1374 90.5443 35.6257 90.5443 35.0353V2.4797C90.5443 1.88929 90.7608 1.37761 91.1937 0.944646C91.6267 0.472323 92.1384 0.236161 92.7288 0.236161H104.005C108.414 0.236161 111.759 1.18081 114.042 3.0701C116.168 4.84131 117.211 7.16356 117.172 10.0369C117.172 11.8868 116.64 13.6383 115.577 15.2915C114.554 16.9052 111.366 19.2745 109.201 19.983C111.523 20.5734 114.81 24.0341 115.873 26.8287C116.581 28.6393 116.916 30.6466 116.876 32.8508V35.0353ZM103.71 16.6494C106.426 16.6494 108.611 16.1377 110.264 15.1143C111.917 14.0516 112.743 12.4772 112.743 10.3911C112.743 8.46245 112.094 7.00612 110.795 6.02212C109.26 4.92003 106.82 4.36899 103.474 4.36899H94.9723V16.6494H103.71Z" fill="white"/>
<path d="M139.3 26.1792C139.89 26.1792 140.402 26.3957 140.835 26.8287C141.307 27.2616 141.543 27.793 141.543 28.4228L141.484 35.0353C141.484 35.6257 141.268 36.1374 140.835 36.5703C140.402 37.0033 139.871 37.2198 139.241 37.2198C138.65 37.2198 138.139 37.0033 137.706 36.5703C137.273 36.1374 137.056 35.6257 137.056 35.0353L137.115 28.4228C137.115 27.8324 137.332 27.3207 137.765 26.8877C138.198 26.4154 138.709 26.1792 139.3 26.1792Z" fill="white"/>
<path d="M176.07 0.236161C180.557 0.236161 183.923 1.39729 186.166 3.71954C188.016 5.56947 188.961 7.99013 189 10.9815C189 13.9335 188.055 19.3306 186.166 21.2199C183.883 23.5421 180.518 24.7032 176.07 24.7032H167.273V35.0353C167.273 35.6257 167.057 36.1374 166.624 36.5703C166.191 37.0033 165.659 37.2198 165.03 37.2198C164.439 37.2198 163.928 37.0033 163.495 36.5703C163.062 36.1374 162.845 35.6257 162.845 35.0353V2.4797C162.845 1.88929 163.062 1.37761 163.495 0.944645C163.928 0.472323 164.439 0.236161 165.03 0.236161H176.07ZM175.657 20.5704C178.963 20.5704 181.364 19.8619 182.86 18.445C184.041 17.3429 184.611 12.8708 184.572 10.9815C184.572 7.99013 183.076 6.00244 180.085 5.01843C178.904 4.62483 177.428 4.40835 175.657 4.36899H167.273V20.5704H175.657Z" fill="white"/>
</svg>
